<svg width="136" height="69" viewBox="0 0 136 69" fill="none" xmlns="http://www.w3.org/2000/svg">
<g clip-path="url(#clip0)">
<path fill-rule="evenodd" clip-rule="evenodd" d="M60.4825 26.4633L65.4756 17.8641C65.4756 17.8641 59.0956 14.2025 58.9291 14.2025C58.7627 14.2025 58.6517 22.1359 58.6517 22.1359C58.6517 22.1359 58.097 25.0208 58.2079 25.1318C58.3189 25.2427 60.4825 26.4633 60.4825 26.4633Z" fill="#FFE241"/>
<path fill-rule="evenodd" clip-rule="evenodd" d="M70.857 27.9612L73.7974 16.2552C73.7974 16.2552 68.5824 18.6962 68.416 18.7517C68.2496 18.8072 68.5824 23.8003 68.5824 23.8003C68.5824 23.8003 68.1386 32.4549 68.7489 29.4591C68.8043 29.2926 70.857 27.9612 70.857 27.9612Z" fill="#FFE241"/>
<path d="M88.0555 17.0319V10.0971H81.1207V12.871H79.0125L78.1803 13.3148L68.749 8.82108V6.93481H71.4674V0H64.5326V6.93481H67.251V8.82108L57.8752 13.3148L57.043 12.871H54.9348V10.0971H48V17.0319H54.9348V14.4244H57.043L57.8752 14.8682V25.0763L57.043 25.5201H54.9348V22.8017H48V29.7365H54.9348V27.0735H57.043L58.7074 26.1859L67.251 31.068V33.0097H64.5326V39.9445H71.4674V33.0652H68.749V31.068L77.2926 26.1304L78.957 27.018H81.0652V29.681H88V22.8017H81.1207V25.5201H79.0125L78.1803 25.0763V14.8682L79.0125 14.4244H81.1207V17.0319H88.0555ZM66.6408 2.10818H69.3592V4.82663H66.6408V2.10818ZM52.8266 14.9237H50.1082V12.2053H52.8266V14.9237ZM52.8266 27.6283H50.1082V24.9098H52.8266V27.6283ZM69.3592 37.8918H66.6408V35.1734H69.3592V37.8918ZM83.2288 24.9098H85.9473V27.6283H83.2288V24.9098ZM68.0277 10.8183L74.8516 14.0915L68.0277 18.0305L63.2566 15.2566L61.2039 14.0915L68.0277 10.8183ZM66.9736 28.4605L59.9834 24.466V15.8114L61.1484 16.4771L66.9736 19.8613V28.4605ZM76.0721 24.466L69.0818 28.4605V19.8058L76.0721 15.7559V24.466ZM83.2288 12.2053H85.9473V14.9237H83.2288V12.2053Z" fill="#1A1A1A"/>
</g>
<path d="M15.6873 58.8077C16.2659 58.9757 16.7046 59.2651 17.0033 59.6757C17.3113 60.0771 17.4653 60.5857 17.4653 61.2017C17.4653 62.0604 17.1619 62.7371 16.5553 63.2317C15.9486 63.7264 15.1273 63.9737 14.0913 63.9737C13.4379 63.9737 12.8126 63.8711 12.2153 63.6657C11.6179 63.4511 11.1186 63.1571 10.7173 62.7837L11.2353 61.7197C12.1219 62.4384 13.0599 62.7977 14.0493 62.7977C14.7119 62.7977 15.2113 62.6577 15.5473 62.3777C15.8926 62.0884 16.0653 61.6637 16.0653 61.1037C16.0653 60.5531 15.8879 60.1424 15.5333 59.8717C15.1879 59.5917 14.6606 59.4517 13.9513 59.4517H12.7333V58.2897H13.7272C14.4086 58.2897 14.9266 58.1497 15.2813 57.8697C15.6453 57.5804 15.8273 57.1604 15.8273 56.6097C15.8273 56.1151 15.6779 55.7371 15.3793 55.4757C15.0806 55.2051 14.6606 55.0697 14.1193 55.0697C13.1766 55.0697 12.2619 55.4291 11.3753 56.1477L10.8713 55.0837C11.2633 54.7104 11.7533 54.4211 12.3413 54.2157C12.9386 54.0011 13.5546 53.8937 14.1893 53.8937C15.1133 53.8937 15.8506 54.1224 16.4013 54.5797C16.9519 55.0371 17.2272 55.6577 17.2272 56.4417C17.2272 56.9924 17.0919 57.4777 16.8213 57.8977C16.5506 58.3177 16.1726 58.6211 15.6873 58.8077ZM19.5738 54.0057H23.0318C24.6278 54.0057 25.8644 54.4351 26.7418 55.2937C27.6191 56.1524 28.0578 57.3657 28.0578 58.9337C28.0578 60.5017 27.6191 61.7197 26.7418 62.5877C25.8644 63.4464 24.6278 63.8757 23.0318 63.8757H19.5738V54.0057ZM22.9478 62.6717C25.3744 62.6717 26.5878 61.4257 26.5878 58.9337C26.5878 56.4511 25.3744 55.2097 22.9478 55.2097H21.0158V62.6717H22.9478ZM42.0265 54.0057H43.1745V63.8757H41.8725L41.8865 56.7357L38.9465 62.2937H37.9665L35.0125 56.8057L35.0265 63.8757H33.7245V54.0057H34.8865L38.4705 60.8377L42.0265 54.0057ZM53.028 63.8757L51.978 61.4397H46.98L45.93 63.8757H44.474L48.87 54.0057H50.074L54.47 63.8757H53.028ZM47.47 60.2917H51.488L49.486 55.6157L47.47 60.2917ZM56.9258 63.8757V55.2097H53.5938V54.0057H61.7278V55.2097H58.3818V63.8757H56.9258ZM65.4023 63.8757V55.2097H62.0703V54.0057H70.2043V55.2097H66.8583V63.8757H65.4023ZM71.5269 63.8757V54.0057H77.9389V55.1677H72.9409V58.2757H77.6589V59.4517H72.9409V62.7137H77.9389V63.8757H71.5269ZM87.7244 63.8757H86.1284L84.4484 60.7117C84.2617 60.3757 84.0377 60.1424 83.7764 60.0117C83.5244 59.8717 83.1884 59.8017 82.7684 59.8017H81.1444V63.8757H79.7164V54.0057H83.9164C85.0084 54.0057 85.839 54.2484 86.4084 54.7337C86.987 55.2191 87.2764 55.9284 87.2764 56.8617C87.2764 57.6177 87.0617 58.2384 86.6324 58.7237C86.2124 59.2091 85.6104 59.5171 84.8264 59.6477C85.3117 59.7971 85.713 60.1611 86.0304 60.7397L87.7244 63.8757ZM83.7484 58.6397C84.4764 58.6397 85.013 58.4997 85.3584 58.2197C85.713 57.9304 85.8904 57.4871 85.8904 56.8897C85.8904 56.2924 85.7177 55.8584 85.3724 55.5877C85.027 55.3077 84.4857 55.1677 83.7484 55.1677H81.1304V58.6397H83.7484ZM89.3824 54.0057H93.4704C94.5157 54.0057 95.3277 54.2624 95.9064 54.7757C96.485 55.2891 96.7744 56.0171 96.7744 56.9597C96.7744 57.8931 96.485 58.6211 95.9064 59.1437C95.3277 59.6664 94.5157 59.9277 93.4704 59.9277H90.8244V63.8757H89.3824V54.0057ZM93.3164 58.7657C94.6977 58.7657 95.3884 58.1637 95.3884 56.9597C95.3884 55.7651 94.6977 55.1677 93.3164 55.1677H90.8244V58.7657H93.3164ZM102.689 63.9877C101.755 63.9877 100.943 63.7824 100.253 63.3717C99.5715 62.9611 99.0442 62.3777 98.6708 61.6217C98.2975 60.8657 98.1108 59.9744 98.1108 58.9477C98.1108 57.9117 98.2928 57.0157 98.6568 56.2597C99.0302 55.4944 99.5622 54.9111 100.253 54.5097C100.943 54.0991 101.755 53.8937 102.689 53.8937C103.631 53.8937 104.448 54.0991 105.139 54.5097C105.829 54.9111 106.357 55.4944 106.721 56.2597C107.094 57.0157 107.281 57.9071 107.281 58.9337C107.281 59.9604 107.094 60.8564 106.721 61.6217C106.357 62.3777 105.829 62.9611 105.139 63.3717C104.448 63.7824 103.631 63.9877 102.689 63.9877ZM102.689 62.8117C103.678 62.8117 104.448 62.4757 104.999 61.8037C105.549 61.1317 105.825 60.1751 105.825 58.9337C105.825 57.6924 105.549 56.7404 104.999 56.0777C104.457 55.4057 103.687 55.0697 102.689 55.0697C101.709 55.0697 100.943 55.4057 100.393 56.0777C99.8515 56.7404 99.5808 57.6924 99.5808 58.9337C99.5808 60.1751 99.8515 61.1317 100.393 61.8037C100.943 62.4757 101.709 62.8117 102.689 62.8117ZM117.256 63.8757H115.66L113.98 60.7117C113.793 60.3757 113.569 60.1424 113.308 60.0117C113.056 59.8717 112.72 59.8017 112.3 59.8017H110.676V63.8757H109.248V54.0057H113.448C114.54 54.0057 115.37 54.2484 115.94 54.7337C116.518 55.2191 116.808 55.9284 116.808 56.8617C116.808 57.6177 116.593 58.2384 116.164 58.7237C115.744 59.2091 115.142 59.5171 114.358 59.6477C114.843 59.7971 115.244 60.1611 115.562 60.7397L117.256 63.8757ZM113.28 58.6397C114.008 58.6397 114.544 58.4997 114.89 58.2197C115.244 57.9304 115.422 57.4871 115.422 56.8897C115.422 56.2924 115.249 55.8584 114.904 55.5877C114.558 55.3077 114.017 55.1677 113.28 55.1677H110.662V58.6397H113.28ZM120.992 63.8757V55.2097H117.66V54.0057H125.794V55.2097H122.448V63.8757H120.992Z" fill="#1A1A1A"/>
<defs>
<clipPath id="clip0">
<rect width="40.0555" height="40" fill="white" transform="translate(48)"/>
</clipPath>
</defs>
</svg>
