<svg width="167" height="69" viewBox="0 0 167 69" fill="none" xmlns="http://www.w3.org/2000/svg">
<path d="M41.0142 64V54.13H47.2862V55.306H42.4422V58.4H47.0062V59.576H42.4422V64H41.0142ZM48.8619 64V54.13H50.3039V62.796H55.0919V64H48.8619ZM60.2406 64.112C59.3073 64.112 58.4953 63.9067 57.8046 63.496C57.1233 63.0853 56.5959 62.502 56.2226 61.746C55.8493 60.99 55.6626 60.0987 55.6626 59.072C55.6626 58.036 55.8446 57.14 56.2086 56.384C56.5819 55.6187 57.1139 55.0353 57.8046 54.634C58.4953 54.2233 59.3073 54.018 60.2406 54.018C61.1833 54.018 61.9999 54.2233 62.6906 54.634C63.3813 55.0353 63.9086 55.6187 64.2726 56.384C64.6459 57.14 64.8326 58.0313 64.8326 59.058C64.8326 60.0847 64.6459 60.9807 64.2726 61.746C63.9086 62.502 63.3813 63.0853 62.6906 63.496C61.9999 63.9067 61.1833 64.112 60.2406 64.112ZM60.2406 62.936C61.2299 62.936 61.9999 62.6 62.5506 61.928C63.1013 61.256 63.3766 60.2993 63.3766 59.058C63.3766 57.8167 63.1013 56.8647 62.5506 56.202C62.0093 55.53 61.2393 55.194 60.2406 55.194C59.2606 55.194 58.4953 55.53 57.9446 56.202C57.4033 56.8647 57.1326 57.8167 57.1326 59.058C57.1326 60.2993 57.4033 61.256 57.9446 61.928C58.4953 62.6 59.2606 62.936 60.2406 62.936ZM71.0414 64.112C70.108 64.112 69.296 63.9067 68.6054 63.496C67.924 63.0853 67.3967 62.502 67.0234 61.746C66.65 60.99 66.4634 60.0987 66.4634 59.072C66.4634 58.036 66.6454 57.14 67.0094 56.384C67.3827 55.6187 67.9147 55.0353 68.6054 54.634C69.296 54.2233 70.108 54.018 71.0414 54.018C71.984 54.018 72.8007 54.2233 73.4914 54.634C74.182 55.0353 74.7094 55.6187 75.0734 56.384C75.4467 57.14 75.6334 58.0313 75.6334 59.058C75.6334 60.0847 75.4467 60.9807 75.0734 61.746C74.7094 62.502 74.182 63.0853 73.4914 63.496C72.8007 63.9067 71.984 64.112 71.0414 64.112ZM71.0414 62.936C72.0307 62.936 72.8007 62.6 73.3514 61.928C73.902 61.256 74.1774 60.2993 74.1774 59.058C74.1774 57.8167 73.902 56.8647 73.3514 56.202C72.81 55.53 72.04 55.194 71.0414 55.194C70.0614 55.194 69.296 55.53 68.7454 56.202C68.204 56.8647 67.9334 57.8167 67.9334 59.058C67.9334 60.2993 68.204 61.256 68.7454 61.928C69.296 62.6 70.0614 62.936 71.0414 62.936ZM85.6081 64H84.0121L82.3321 60.836C82.1455 60.5 81.9215 60.2667 81.6601 60.136C81.4081 59.996 81.0721 59.926 80.6521 59.926H79.0281V64H77.6001V54.13H81.8001C82.8921 54.13 83.7228 54.3727 84.2921 54.858C84.8708 55.3433 85.1601 56.0527 85.1601 56.986C85.1601 57.742 84.9455 58.3627 84.5161 58.848C84.0961 59.3333 83.4941 59.6413 82.7101 59.772C83.1955 59.9213 83.5968 60.2853 83.9141 60.864L85.6081 64ZM81.6321 58.764C82.3601 58.764 82.8968 58.624 83.2421 58.344C83.5968 58.0547 83.7741 57.6113 83.7741 57.014C83.7741 56.4167 83.6015 55.9827 83.2561 55.712C82.9108 55.432 82.3695 55.292 81.6321 55.292H79.0141V58.764H81.6321ZM90.9576 54.13H95.0456C96.0909 54.13 96.9029 54.3867 97.4816 54.9C98.0602 55.4133 98.3496 56.1413 98.3496 57.084C98.3496 58.0173 98.0602 58.7453 97.4816 59.268C96.9029 59.7907 96.0909 60.052 95.0456 60.052H92.3996V64H90.9576V54.13ZM94.8916 58.89C96.2729 58.89 96.9636 58.288 96.9636 57.084C96.9636 55.8893 96.2729 55.292 94.8916 55.292H92.3996V58.89H94.8916ZM100.09 64V54.13H101.532V62.796H106.32V64H100.09ZM115.142 64L114.092 61.564H109.094L108.044 64H106.588L110.984 54.13H112.188L116.584 64H115.142ZM109.584 60.416H113.602L111.6 55.74L109.584 60.416ZM124.625 54.13H125.983V64H124.877L119.235 56.552V64H117.877V54.13H118.969L124.625 61.592V54.13Z" fill="#1A1A1A"/>
<path fill-rule="evenodd" clip-rule="evenodd" d="M66.0076 36.8381L79.5584 13.5006L65.2046 13.4504V33.325L66.0076 36.8381Z" fill="#FFE241"/>
<path d="M104 0H64V40H104V0ZM66.0075 12.3965V2.00753H101.992V20.5772H92.808V12.3965H90.7503V30.7654H92.808V22.6349H101.992V37.9925H81.1142V28.3062H79.0565V37.9925H66.0075V14.4542H79.0565V21.5809H81.1142V14.4542V12.9486V12.3965H66.0075Z" fill="black"/>
</svg>
