<svg width="63" height="69" viewBox="0 0 63 69" fill="none" xmlns="http://www.w3.org/2000/svg">
<path d="M9.60717 58.764V63.412C9.18717 63.6267 8.65984 63.7993 8.02517 63.93C7.39051 64.0513 6.74651 64.112 6.09317 64.112C5.09451 64.112 4.23117 63.9113 3.50317 63.51C2.77517 63.1087 2.21984 62.53 1.83717 61.774C1.45451 61.018 1.26317 60.1127 1.26317 59.058C1.26317 58.022 1.45451 57.126 1.83717 56.37C2.21984 55.6047 2.76584 55.0213 3.47517 54.62C4.19384 54.2187 5.03851 54.018 6.00917 54.018C6.70917 54.018 7.35317 54.1207 7.94117 54.326C8.52917 54.5313 9.02851 54.83 9.43917 55.222L8.92117 56.286C8.45451 55.9033 7.99251 55.628 7.53517 55.46C7.07784 55.292 6.57384 55.208 6.02317 55.208C4.95917 55.208 4.14251 55.5393 3.57317 56.202C3.01317 56.8553 2.73317 57.8073 2.73317 59.058C2.73317 60.3367 3.02251 61.3073 3.60117 61.97C4.17984 62.6233 5.02451 62.95 6.13517 62.95C6.86317 62.95 7.58184 62.8427 8.29117 62.628V59.856H5.99517V58.764H9.60717ZM19.3307 64L18.2807 61.564H13.2827L12.2327 64H10.7767L15.1727 54.13H16.3767L20.7727 64H19.3307ZM13.7727 60.416H17.7907L15.7887 55.74L13.7727 60.416ZM22.066 64V54.13H23.508V62.796H28.296V64H22.066ZM29.7222 64V54.13H31.1642V62.796H35.9522V64H29.7222ZM37.3785 64V54.13H43.7905V55.292H38.7925V58.4H43.5105V59.576H38.7925V62.838H43.7905V64H37.3785ZM53.5759 64H51.9799L50.2999 60.836C50.1133 60.5 49.8893 60.2667 49.6279 60.136C49.3759 59.996 49.0399 59.926 48.6199 59.926H46.9959V64H45.5679V54.13H49.7679C50.8599 54.13 51.6906 54.3727 52.2599 54.858C52.8386 55.3433 53.1279 56.0527 53.1279 56.986C53.1279 57.742 52.9133 58.3627 52.4839 58.848C52.0639 59.3333 51.4619 59.6413 50.6779 59.772C51.1633 59.9213 51.5646 60.2853 51.8819 60.864L53.5759 64ZM49.5999 58.764C50.3279 58.764 50.8646 58.624 51.2099 58.344C51.5646 58.0547 51.7419 57.6113 51.7419 57.014C51.7419 56.4167 51.5693 55.9827 51.2239 55.712C50.8786 55.432 50.3373 55.292 49.5999 55.292H46.9819V58.764H49.5999ZM62.9222 54.13L58.9882 59.394V64H57.5462V59.394L53.6122 54.13H55.2642L58.2742 58.204L61.2842 54.13H62.9222Z" fill="#1A1A1A"/>
<g clip-path="url(#clip0)">
<path fill-rule="evenodd" clip-rule="evenodd" d="M14.4598 38.9436L32.8511 15.8944L6.53662 15.9424L6.7287 38.9916L14.4598 38.9436Z" fill="#FFE241"/>
<path d="M5 14.4057V39.9519V39.9999H45V39.9519V14.4057H5ZM43.0312 38.0311H6.96879V16.3745H43.0312V38.0311Z" fill="black"/>
<path d="M19.4058 0V7.20288H12.2029V14.4058H14.1717V9.17167H19.4058H21.3745H50.2341V23.6255V25.5942V30.8283H45V32.7971H52.2029V32.7491V25.5942H59.4058V25.5462V0H19.4058ZM57.437 23.6255H52.2029V7.20288H21.3745V1.96879H57.437V23.6255Z" fill="black"/>
</g>
<defs>
<clipPath id="clip0">
<rect width="54.4058" height="40" fill="white" transform="translate(5)"/>
</clipPath>
</defs>
</svg>
