<svg width="142" height="69" viewBox="0 0 142 69" fill="none" xmlns="http://www.w3.org/2000/svg">
<path d="M1.50345 54.13H5.81545C6.87012 54.13 7.69145 54.396 8.27945 54.928C8.86745 55.4507 9.16145 56.188 9.16145 57.14C9.16145 58.092 8.86745 58.834 8.27945 59.366C7.69145 59.898 6.87012 60.164 5.81545 60.164H3.30945V64H1.50345V54.13ZM5.59145 58.778C6.83279 58.778 7.45345 58.2367 7.45345 57.154C7.45345 56.6033 7.29945 56.1973 6.99145 55.936C6.68345 55.6653 6.21679 55.53 5.59145 55.53H3.30945V58.778H5.59145ZM19.0196 64H17.0596L15.3656 60.85C15.207 60.5513 15.011 60.3413 14.7776 60.22C14.5443 60.0987 14.2503 60.038 13.8956 60.038H12.5236V64H10.7456V54.13H15.1136C16.2336 54.13 17.083 54.382 17.6616 54.886C18.2496 55.3807 18.5436 56.0993 18.5436 57.042C18.5436 57.798 18.329 58.4233 17.8996 58.918C17.4796 59.4033 16.8823 59.7207 16.1076 59.87C16.6303 60.01 17.0503 60.3787 17.3676 60.976L19.0196 64ZM14.8616 58.652C15.543 58.652 16.0423 58.526 16.3596 58.274C16.677 58.0127 16.8356 57.616 16.8356 57.084C16.8356 56.5427 16.677 56.1507 16.3596 55.908C16.0423 55.656 15.543 55.53 14.8616 55.53H12.5096V58.652H14.8616ZM24.8077 64.126C23.8463 64.126 23.011 63.9207 22.3017 63.51C21.6017 63.0993 21.0603 62.5113 20.6777 61.746C20.295 60.9807 20.1037 60.0847 20.1037 59.058C20.1037 58.0313 20.2903 57.14 20.6637 56.384C21.0463 55.6187 21.5923 55.0307 22.3017 54.62C23.011 54.2093 23.8463 54.004 24.8077 54.004C25.769 54.004 26.5997 54.2093 27.2997 54.62C28.009 55.0307 28.5503 55.6187 28.9237 56.384C29.3063 57.14 29.4977 58.0313 29.4977 59.058C29.4977 60.0847 29.3063 60.9807 28.9237 61.746C28.541 62.5113 27.995 63.0993 27.2857 63.51C26.5857 63.9207 25.7597 64.126 24.8077 64.126ZM24.8077 62.684C25.713 62.684 26.4177 62.3713 26.9217 61.746C27.435 61.1207 27.6917 60.2247 27.6917 59.058C27.6917 57.8913 27.435 57 26.9217 56.384C26.4177 55.7587 25.713 55.446 24.8077 55.446C23.893 55.446 23.179 55.7587 22.6657 56.384C22.1617 57 21.9097 57.8913 21.9097 59.058C21.9097 60.2247 22.1617 61.1207 22.6657 61.746C23.179 62.3713 23.893 62.684 24.8077 62.684ZM31.3218 54.13H35.6338C36.6885 54.13 37.5098 54.396 38.0978 54.928C38.6858 55.4507 38.9798 56.188 38.9798 57.14C38.9798 58.092 38.6858 58.834 38.0978 59.366C37.5098 59.898 36.6885 60.164 35.6338 60.164H33.1278V64H31.3218V54.13ZM35.4098 58.778C36.6511 58.778 37.2718 58.2367 37.2718 57.154C37.2718 56.6033 37.1178 56.1973 36.8098 55.936C36.5018 55.6653 36.0351 55.53 35.4098 55.53H33.1278V58.778H35.4098ZM40.564 64V54.13H47.172V55.558H42.328V58.274H46.892V59.688H42.328V62.572H47.172V64H40.564ZM57.0821 64H55.1221L53.4281 60.85C53.2695 60.5513 53.0735 60.3413 52.8401 60.22C52.6068 60.0987 52.3128 60.038 51.9581 60.038H50.5861V64H48.8081V54.13H53.1761C54.2961 54.13 55.1455 54.382 55.7241 54.886C56.3121 55.3807 56.6061 56.0993 56.6061 57.042C56.6061 57.798 56.3915 58.4233 55.9621 58.918C55.5421 59.4033 54.9448 59.7207 54.1701 59.87C54.6928 60.01 55.1128 60.3787 55.4301 60.976L57.0821 64ZM52.9241 58.652C53.6055 58.652 54.1048 58.526 54.4221 58.274C54.7395 58.0127 54.8981 57.616 54.8981 57.084C54.8981 56.5427 54.7395 56.1507 54.4221 55.908C54.1048 55.656 53.6055 55.53 52.9241 55.53H50.5721V58.652H52.9241ZM60.5931 64V55.614H57.3731V54.13H65.6191V55.614H62.3991V64H60.5931ZM75.2641 54.13L71.2601 59.45V64H69.4541V59.45L65.4641 54.13H67.4941L70.3501 58.008L73.2201 54.13H75.2641ZM92.0015 54.13H93.7235L90.2375 64H88.7675L86.2895 56.902L83.7975 64H82.3275L78.8555 54.13H80.6755L83.1255 61.48L85.7015 54.13H86.9755L89.4815 61.522L92.0015 54.13ZM95.1285 64V54.13H101.736V55.558H96.8925V58.274H101.456V59.688H96.8925V62.572H101.736V64H95.1285ZM109.449 58.904C110.018 59.0627 110.457 59.352 110.765 59.772C111.082 60.192 111.241 60.7053 111.241 61.312C111.241 62.152 110.937 62.81 110.331 63.286C109.733 63.762 108.907 64 107.853 64H103.373V54.13H107.713C108.739 54.13 109.542 54.3587 110.121 54.816C110.709 55.264 111.003 55.894 111.003 56.706C111.003 57.2287 110.863 57.6813 110.583 58.064C110.312 58.4467 109.934 58.7267 109.449 58.904ZM105.137 58.288H107.419C108.66 58.288 109.281 57.826 109.281 56.902C109.281 56.4353 109.127 56.09 108.819 55.866C108.511 55.642 108.044 55.53 107.419 55.53H105.137V58.288ZM107.657 62.6C108.31 62.6 108.786 62.4833 109.085 62.25C109.383 62.0167 109.533 61.6527 109.533 61.158C109.533 60.6633 109.379 60.2947 109.071 60.052C108.772 59.8093 108.301 59.688 107.657 59.688H105.137V62.6H107.657ZM116.275 64.126C115.519 64.126 114.81 64.0233 114.147 63.818C113.485 63.6127 112.925 63.3233 112.467 62.95L113.069 61.634C113.545 61.998 114.045 62.264 114.567 62.432C115.099 62.6 115.673 62.684 116.289 62.684C116.971 62.684 117.493 62.5673 117.857 62.334C118.231 62.0913 118.417 61.7553 118.417 61.326C118.417 60.9527 118.245 60.668 117.899 60.472C117.563 60.276 116.999 60.0893 116.205 59.912C115.384 59.7347 114.717 59.5293 114.203 59.296C113.69 59.0627 113.303 58.764 113.041 58.4C112.78 58.036 112.649 57.574 112.649 57.014C112.649 56.4353 112.808 55.9173 113.125 55.46C113.443 55.0027 113.891 54.648 114.469 54.396C115.048 54.1347 115.715 54.004 116.471 54.004C117.162 54.004 117.82 54.1113 118.445 54.326C119.071 54.5313 119.584 54.816 119.985 55.18L119.383 56.496C118.506 55.796 117.535 55.446 116.471 55.446C115.837 55.446 115.333 55.5767 114.959 55.838C114.595 56.09 114.413 56.4447 114.413 56.902C114.413 57.2847 114.577 57.5787 114.903 57.784C115.23 57.9893 115.785 58.1807 116.569 58.358C117.4 58.5447 118.072 58.7547 118.585 58.988C119.108 59.212 119.505 59.5013 119.775 59.856C120.055 60.2107 120.195 60.6587 120.195 61.2C120.195 61.788 120.037 62.306 119.719 62.754C119.411 63.1927 118.959 63.5333 118.361 63.776C117.773 64.0093 117.078 64.126 116.275 64.126ZM121.857 64V54.13H123.663V64H121.857ZM128.118 64V55.614H124.898V54.13H133.144V55.614H129.924V64H128.118ZM134.38 64V54.13H140.988V55.558H136.144V58.274H140.708V59.688H136.144V62.572H140.988V64H134.38Z" fill="#1A1A1A"/>
<path d="M90.6436 19.9693C88.9293 4.25498 77.0721 0.802602 71.3578 1.0407V19.9693L81.3578 36.0407C88.215 31.4693 90.4055 23.4216 90.6436 19.9693Z" fill="#FFE241"/>
<path d="M71 9.8193C67.2275 9.8193 63.4565 9.38481 59.7958 8.52688C59.4248 8.43999 59.1944 8.07033 59.2813 7.69792C59.3682 7.32826 59.7296 7.09792 60.1117 7.18343C68.102 9.05654 76.5944 8.82067 84.4951 6.49654C84.8675 6.39171 85.2455 6.59723 85.3517 6.96274C85.4593 7.32964 85.251 7.71171 84.8855 7.8193C80.3737 9.14619 75.702 9.8193 71 9.8193Z" fill="#1A1A1A"/>
<path d="M84.6897 33.5434C84.6248 33.5434 84.56 33.5338 84.4938 33.5145C75.7228 30.9338 66.2772 30.9338 57.5062 33.5145C57.1352 33.6179 56.7559 33.4138 56.6497 33.0483C56.5421 32.6814 56.7504 32.2993 57.1159 32.1917C66.1435 29.5352 75.8579 29.5352 84.8855 32.1917C85.251 32.2993 85.4593 32.6814 85.3517 33.0483C85.2635 33.3503 84.9876 33.5434 84.6897 33.5434Z" fill="#1A1A1A"/>
<path d="M70.1573 39.4428C70.0221 39.4428 69.8883 39.4041 69.7683 39.3228C63.3311 34.9296 59.4883 27.7062 59.4883 20C59.4883 13.7559 61.9449 7.87861 66.4083 3.45103C66.6801 3.1793 67.1173 3.18482 67.3835 3.45378C67.6525 3.72413 67.6497 4.16137 67.3808 4.42896C63.1808 8.59585 60.8677 14.1255 60.8677 20C60.8677 27.2496 64.4856 34.0483 70.5477 38.1834C70.8621 38.3972 70.9421 38.8276 70.7283 39.1421C70.5932 39.3379 70.3766 39.4428 70.1573 39.4428Z" fill="#1A1A1A"/>
<path d="M71.9022 39.4428C71.6829 39.4428 71.4663 39.3379 71.3325 39.1421C71.1187 38.8262 71.1987 38.3972 71.5132 38.1834C77.5753 34.0483 81.1932 27.2497 81.1932 20C81.1932 12.7503 77.5753 5.95173 71.5132 1.81656C71.1987 1.60276 71.1187 1.17242 71.3325 0.857936C71.5477 0.543453 71.9781 0.466212 72.2912 0.677246C78.7284 5.07035 82.5712 12.2938 82.5712 20C82.5712 27.7062 78.7284 34.9297 72.2912 39.3228C72.1725 39.4028 72.0374 39.4428 71.9022 39.4428Z" fill="#1A1A1A"/>
<path d="M71 39.2372C70.6193 39.2372 70.3103 38.9283 70.3103 38.5476V1.45241C70.3103 1.07172 70.6193 0.762756 71 0.762756C71.3806 0.762756 71.6896 1.07172 71.6896 1.45241V38.5476C71.6896 38.9296 71.3806 39.2372 71 39.2372Z" fill="#1A1A1A"/>
<path d="M90.2372 20.6896H54.5214C54.1407 20.6896 53.8317 20.3807 53.8317 20C53.8317 19.6193 54.1407 19.3103 54.5214 19.3103H90.2386C90.6193 19.3103 90.9283 19.6193 90.9283 20C90.9283 20.3807 90.6193 20.6896 90.2372 20.6896Z" fill="#1A1A1A"/>
<path d="M71 40C59.9724 40 51 31.0276 51 20C51 15.1434 52.7628 10.4566 55.9655 6.8069C56.2166 6.52 56.651 6.49241 56.9393 6.74345C57.2248 6.99448 57.2524 7.43034 57.0028 7.71724C54.0221 11.1145 52.3793 15.4772 52.3793 20C52.3793 30.2676 60.7324 38.6207 71 38.6207C81.2676 38.6207 89.6207 30.2676 89.6207 20C89.6207 9.73241 81.2676 1.37931 71 1.37931C66.7545 1.37931 62.7572 2.76966 59.4428 5.4C59.1448 5.63724 58.7117 5.58896 58.4745 5.28828C58.2372 4.99034 58.2869 4.55724 58.5862 4.32C62.1462 1.49379 66.4386 0 71 0C82.0276 0 91 8.97241 91 20C91 31.0276 82.0276 40 71 40Z" fill="#1A1A1A"/>
</svg>
