<svg width="55" height="69" viewBox="0 0 55 69" fill="none" xmlns="http://www.w3.org/2000/svg">
<path d="M13.4283 54.13H14.8983L10.5443 64H9.32632L4.98632 54.13H6.48432L9.95632 62.18L13.4283 54.13ZM15.9927 64V54.13H17.4347V64H15.9927ZM19.7251 54.13H23.1831C24.7791 54.13 26.0158 54.5593 26.8931 55.418C27.7705 56.2767 28.2091 57.49 28.2091 59.058C28.2091 60.626 27.7705 61.844 26.8931 62.712C26.0158 63.5707 24.7791 64 23.1831 64H19.7251V54.13ZM23.0991 62.796C25.5258 62.796 26.7391 61.55 26.7391 59.058C26.7391 56.5753 25.5258 55.334 23.0991 55.334H21.1671V62.796H23.0991ZM30.1705 64V54.13H36.5825V55.292H31.5845V58.4H36.3025V59.576H31.5845V62.838H36.5825V64H30.1705ZM42.5609 64.112C41.6276 64.112 40.8156 63.9067 40.1249 63.496C39.4436 63.0853 38.9162 62.502 38.5429 61.746C38.1696 60.99 37.9829 60.0987 37.9829 59.072C37.9829 58.036 38.1649 57.14 38.5289 56.384C38.9022 55.6187 39.4342 55.0353 40.1249 54.634C40.8156 54.2233 41.6276 54.018 42.5609 54.018C43.5036 54.018 44.3202 54.2233 45.0109 54.634C45.7016 55.0353 46.2289 55.6187 46.5929 56.384C46.9662 57.14 47.1529 58.0313 47.1529 59.058C47.1529 60.0847 46.9662 60.9807 46.5929 61.746C46.2289 62.502 45.7016 63.0853 45.0109 63.496C44.3202 63.9067 43.5036 64.112 42.5609 64.112ZM42.5609 62.936C43.5502 62.936 44.3202 62.6 44.8709 61.928C45.4216 61.256 45.6969 60.2993 45.6969 59.058C45.6969 57.8167 45.4216 56.8647 44.8709 56.202C44.3296 55.53 43.5596 55.194 42.5609 55.194C41.5809 55.194 40.8156 55.53 40.2649 56.202C39.7236 56.8647 39.4529 57.8167 39.4529 59.058C39.4529 60.2993 39.7236 61.256 40.2649 61.928C40.8156 62.6 41.5809 62.936 42.5609 62.936Z" fill="#1A1A1A"/>
<g clip-path="url(#clip0)">
<path fill-rule="evenodd" clip-rule="evenodd" d="M16.1824 38.9435L34.5738 1.48853L1.53656 1.53654L1.72864 38.9915L16.1824 38.9435Z" fill="#FFE241"/>
<path d="M0 0V39.952V40H54.4058V39.952V0H0ZM52.437 38.0312H1.96879V1.96879H52.437V38.0312Z" fill="black"/>
<path d="M35.0541 19.9759L19.3518 11.5245V28.4753L35.0541 19.9759Z" fill="black"/>
</g>
<defs>
<clipPath id="clip0">
<rect width="54.4058" height="40" fill="white"/>
</clipPath>
</defs>
</svg>
